<?xml version="1.0" standalone="no"?>
<!DOCTYPE svg PUBLIC "-//W3C//DTD SVG 1.1//EN" "http://www.w3.org/Graphics/SVG/1.1/DTD/svg11.dtd">
<svg width="100%" height="100%" viewBox="0 0 1468 1694" version="1.1" xmlns="http://www.w3.org/2000/svg" xmlns:xlink="http://www.w3.org/1999/xlink" xml:space="preserve" style="fill-rule:evenodd;clip-rule:evenodd;stroke-linejoin:round;stroke-miterlimit:1.41421;">
    <g transform="matrix(1,0,0,1,-513.02,-508.591)">
        <g transform="matrix(1.04383,0,0,1.04383,-89.0975,-54.4985)">
            <ellipse cx="1279.97" cy="1243.48" rx="695.81" ry="698.783" style="fill:white;"/>
        </g>
        <g transform="matrix(0.73677,0.0334094,-0.0318255,0.70184,606.537,289.031)">
            <g>
                <g transform="matrix(0.768476,0.639878,-0.639878,0.768476,1305.07,201.748)">
                    <text x="373.744px" y="1904.33px" style="font-family:Arial;font-size:148.267px;fill:rgb(17,17,17);">g</text>
                </g>
                <g transform="matrix(0.830848,0.5565,-0.5565,0.830848,1163.03,87.7113)">
                    <text x="437.233px" y="1957px" style="font-family:Arial;font-size:148.267px;fill:rgb(17,17,17);">e</text>
                </g>
                <g transform="matrix(0.881831,0.471566,-0.471566,0.881831,1004.23,-1.89378)">
                    <text x="505.896px" y="2002.8px" style="font-family:Arial;font-size:148.267px;fill:rgb(17,17,17);">d</text>
                </g>
                <g transform="matrix(0.926649,0.375928,-0.375928,0.926649,809.904,-67.7716)">
                    <text x="578.618px" y="2041.51px" style="font-family:Arial;font-size:148.267px;fill:rgb(17,17,17);">e</text>
                </g>
                <g transform="matrix(0.958912,0.283703,-0.283703,0.958912,614.833,-100.721)">
                    <text x="655.144px" y="2072.29px" style="font-family:Arial;font-size:148.267px;fill:rgb(17,17,17);">s</text>
                </g>
                <g transform="matrix(0.97728,0.21195,-0.21195,0.97728,460.068,-106.436)">
                    <text x="726.503px" y="2092.76px" style="font-family:Arial;font-size:148.267px;fill:rgb(17,17,17);">t</text>
                </g>
                <g transform="matrix(0.990532,0.13728,-0.13728,0.990532,295.86,-85.3378)">
                    <text x="766.619px" y="2102.28px" style="font-family:Arial;font-size:148.267px;fill:rgb(17,17,17);">e</text>
                </g>
                <g transform="matrix(0.998836,0.0482367,-0.0482367,0.998836,102.917,-38.4643)">
                    <text x="848.401px" y="2113.11px" style="font-family:Arial;font-size:148.267px;fill:rgb(17,17,17);">r</text>
                </g>
                <g transform="matrix(0.999924,-0.0123674,0.0123674,0.999924,-26.0988,11.2652)">
                    <text x="897.791px" y="2115.84px" style="font-family:Arial;font-size:148.267px;fill:rgb(17,17,17);">r</text>
                </g>
                <g transform="matrix(0.996297,-0.0859783,0.0859783,0.996297,-178.426,89.2775)">
                    <text x="947.237px" y="2116.04px" style="font-family:Arial;font-size:148.267px;fill:rgb(17,17,17);">o</text>
                </g>
                <g transform="matrix(0.986607,-0.163118,0.163118,0.986607,-330.091,196.145)">
                    <text x="1029.37px" y="2108.15px" style="font-family:Arial;font-size:148.267px;fill:rgb(17,17,17);">.</text>
                </g>
                <g transform="matrix(0.971361,-0.23761,0.23761,0.971361,-468.866,314.448)">
                    <text x="1070px" y="2102.23px" style="font-family:Arial;font-size:148.267px;fill:rgb(17,17,17);">u</text>
                </g>
                <g transform="matrix(0.948505,-0.316762,0.316762,0.948505,-600.246,471.482)">
                    <text x="1150px" y="2081.89px" style="font-family:Arial;font-size:148.267px;fill:rgb(17,17,17);">f</text>
                </g>
                <g transform="matrix(0.925047,-0.379853,0.379853,0.925047,-696.947,606.862)">
                    <text x="1189.28px" y="2069.45px" style="font-family:Arial;font-size:148.267px;fill:rgb(17,17,17);">s</text>
                </g>
                <g transform="matrix(0.884419,-0.466694,0.466694,0.884419,-807.278,823.02)">
                    <text x="1257.96px" y="2041.33px" style="font-family:Arial;font-size:148.267px;fill:rgb(17,17,17);">c</text>
                </g>
                <g transform="matrix(0.850042,-0.526715,0.526715,0.850042,-858.291,997.881)">
                    <text x="1323.34px" y="2006.28px" style="font-family:Arial;font-size:148.267px;fill:rgb(17,17,17);">.</text>
                </g>
                <g transform="matrix(0.806265,-0.591555,0.591555,0.806265,-911.123,1188.49)">
                    <text x="1358.92px" y="1985.27px" style="font-family:Arial;font-size:148.267px;fill:rgb(17,17,17);">b</text>
                </g>
                <g transform="matrix(0.752486,-0.658609,0.658609,0.752486,-922.391,1417.89)">
                    <text x="1425.23px" y="1936.13px" style="font-family:Arial;font-size:148.267px;fill:rgb(17,17,17);">r</text>
                </g>
            </g>
        </g>
        <g transform="matrix(0.769442,0,0,0.712607,596.338,344.124)">
            <g>
                <g transform="matrix(-0.172485,-0.985012,0.985012,-0.172485,-1270.1,1828.94)">
                    <text x="133.201px" y="1447.98px" style="font-family:Arial;font-size:175.412px;font-weight:700;fill:rgb(17,17,17);">G</text>
                </g>
                <g transform="matrix(0.00268073,-0.999996,0.999996,0.00268073,-1203.83,1419.41)">
                    <text x="109.698px" y="1313.24px" style="font-family:Arial;font-size:175.412px;font-weight:700;fill:rgb(17,17,17);">R</text>
                </g>
                <g transform="matrix(0.154477,-0.987996,0.987996,0.154477,-1079.29,1111.28)">
                    <text x="109.624px" y="1186.22px" style="font-family:Arial;font-size:175.412px;font-weight:700;fill:rgb(17,17,17);">U</text>
                </g>
                <g transform="matrix(0.310972,-0.950419,0.950419,0.310972,-919.239,854.106)">
                    <text x="129.441px" y="1061.03px" style="font-family:Arial;font-size:175.412px;font-weight:700;fill:rgb(17,17,17);">P</text>
                </g>
                <g transform="matrix(0.460935,-0.887434,0.887434,0.460935,-753.081,658.047)">
                    <text x="165.114px" y="948.903px" style="font-family:Arial;font-size:175.412px;font-weight:700;fill:rgb(17,17,17);">O</text>
                </g>
                <g transform="matrix(0.653116,-0.757258,0.757258,0.653116,-507.597,467.228)">
                    <text x="256.188px" y="787.664px" style="font-family:Arial;font-size:175.412px;font-weight:700;fill:rgb(17,17,17);">E</text>
                </g>
                <g transform="matrix(0.760279,-0.649596,0.649596,0.760279,-374.189,383.655)">
                    <text x="332.72px" y="698.818px" style="font-family:Arial;font-size:175.412px;font-weight:700;fill:rgb(17,17,17);">S</text>
                </g>
                <g transform="matrix(0.857616,-0.514291,0.514291,0.857616,-260.067,305.484)">
                    <text x="421.67px" y="622.422px" style="font-family:Arial;font-size:175.412px;font-weight:700;fill:rgb(17,17,17);">C</text>
                </g>
                <g transform="matrix(0.937359,-0.348366,0.348366,0.937359,-160.681,219.678)">
                    <text x="530.505px" y="556.635px" style="font-family:Arial;font-size:175.412px;font-weight:700;fill:rgb(17,17,17);">O</text>
                </g>
                <g transform="matrix(0.983147,-0.182817,0.182817,0.983147,-82.1663,129.075)">
                    <text x="659.003px" y="510.196px" style="font-family:Arial;font-size:175.412px;font-weight:700;fill:rgb(17,17,17);">T</text>
                </g>
                <g transform="matrix(0.999727,-0.0233838,0.0233838,0.999727,-11.2502,18.0109)">
                    <text x="764.5px" y="490.051px" style="font-family:Arial;font-size:175.412px;font-weight:700;fill:rgb(17,17,17);">E</text>
                </g>
                <g transform="matrix(0.995975,0.0896294,-0.0896294,0.995975,47.385,-77.0267)">
                    <text x="881.354px" y="489.1px" style="font-family:Arial;font-size:175.412px;font-weight:700;fill:rgb(17,17,17);">I</text>
                </g>
                <g transform="matrix(0.975485,0.220066,-0.220066,0.975485,130.765,-192.761)">
                    <text x="930.567px" y="490.544px" style="font-family:Arial;font-size:175.412px;font-weight:700;fill:rgb(17,17,17);">R</text>
                </g>
                <g transform="matrix(0.921216,0.38905,-0.38905,0.921216,284.466,-369.566)">
                    <text x="1054.73px" y="517.596px" style="font-family:Arial;font-size:175.412px;font-weight:700;fill:rgb(17,17,17);">O</text>
                </g>
                <g transform="matrix(0.795728,0.605654,-0.605654,0.795728,610.605,-618.898)">
                    <text x="1222.8px" y="595.754px" style="font-family:Arial;font-size:175.412px;font-weight:700;fill:rgb(17,17,17);">D</text>
                </g>
                <g transform="matrix(0.68619,0.727422,-0.727422,0.68619,904.945,-751.886)">
                    <text x="1323.92px" y="672.903px" style="font-family:Arial;font-size:175.412px;font-weight:700;fill:rgb(17,17,17);">E</text>
                </g>
                <g transform="matrix(0.569413,0.822051,-0.822051,0.569413,1227.92,-828.019)">
                    <text x="1404.36px" y="758.125px" style="font-family:Arial;font-size:175.412px;font-weight:700;fill:rgb(17,17,17);">S</text>
                </g>
                <g transform="matrix(0.441698,0.897164,-0.897164,0.441698,1587.87,-842.273)">
                    <text x="1470.68px" y="854.681px" style="font-family:Arial;font-size:175.412px;font-weight:700;fill:rgb(17,17,17);">T</text>
                </g>
                <g transform="matrix(0.304176,0.952616,-0.952616,0.304176,1962.38,-785.018)">
                    <text x="1518.55px" y="950.785px" style="font-family:Arial;font-size:175.412px;font-weight:700;fill:rgb(17,17,17);">E</text>
                </g>
                <g transform="matrix(0.146199,0.989255,-0.989255,0.146199,2378.63,-631.543)">
                    <text x="1555.18px" y="1062.22px" style="font-family:Arial;font-size:175.412px;font-weight:700;fill:rgb(17,17,17);">R</text>
                </g>
                <g transform="matrix(-0.0137852,0.999905,-0.999905,-0.0137852,2784.04,-370.295)">
                    <text x="1574.63px" y="1187.81px" style="font-family:Arial;font-size:175.412px;font-weight:700;fill:rgb(17,17,17);">R</text>
                </g>
                <g transform="matrix(-0.172859,0.984947,-0.984947,-0.172859,3140.74,-8.17217)">
                    <text x="1573.8px" y="1314.68px" style="font-family:Arial;font-size:175.412px;font-weight:700;fill:rgb(17,17,17);">O</text>
                </g>
            </g>
        </g>
        <g transform="matrix(2.06688,0,0,2.06688,840.641,679.747)">
            <path d="M205.03,15.94C207.18,20.12 209.12,24.42 211.63,28.4C217.97,38.75 227.15,47.01 236.86,54.13C246.79,61.48 257.54,67.87 266.18,76.82C272.1,82.67 276.71,89.89 279.31,97.82C287,122.7 287.41,149.92 279.45,174.79C295.42,168.13 312.63,163.76 330.03,164.3C345.7,164.49 361.81,169.71 373.16,180.82C380.27,187.46 385.09,196.09 389.08,204.86C394.04,216.14 397.1,228.26 398,240.55L398,258.35C395.29,280.25 388.09,301.97 374.71,319.71C362.53,335.29 344.38,346.45 324.67,349.05C318.09,350.08 311.56,348.42 305.12,347.26C307.29,336.25 310.7,325.29 310.27,313.94C310.11,306.23 305.29,298.96 298.61,295.33C292.16,293.51 284.33,293.36 279.01,298.06C267.58,307.48 263.77,322.85 262.63,336.99C257.48,332.97 251.42,329.74 244.76,329.52C233.66,329.3 222.55,329.55 211.45,329.42C214.69,295.4 210.61,260.9 200.98,228.18C197.41,215.99 192.58,204.21 189.2,191.96C183.32,171.54 180.28,150.25 180.89,128.99C182.33,90.2 193.88,52.82 205.03,15.94Z" style="fill:rgb(7,11,46);fill-rule:nonzero;"/>
            <path d="M169.67,47.66C173.7,44.37 177.23,40.56 180.93,36.92C172.31,68.95 163.56,101.56 164.19,135C163.58,164.11 170.63,192.81 180.65,219.96C192.59,254.98 198.48,292.51 194.36,329.44C180.56,329.54 166.76,329.37 152.97,329.51C146.55,329.64 140.91,332.97 135.6,336.24C134.36,322.5 130.6,307.62 119.57,298.39C114.2,293.34 106,293.47 99.39,295.5C94.63,298.21 90.82,302.88 89.01,308.07C86.07,321.3 90.99,334.38 92.91,347.35C86.66,348.44 80.35,350.1 73.96,349.16C59.71,347.35 46.2,340.94 35.18,331.81C23.96,322.59 16.08,309.97 10.37,296.76C3.92,281.42 -0.47,264.75 1.01,248C-0.45,232.55 3.63,217.14 10.03,203.18C13.68,195.53 17.87,187.95 23.97,181.96C35.56,169.96 52.54,164.33 68.99,164.34C86.11,163.84 103.01,168.28 118.74,174.74C111.32,150.73 111.33,124.56 118.19,100.42C120.56,91.78 125.26,83.87 131.48,77.46C142.69,65.67 157.45,58.24 169.67,47.66Z" style="fill:rgb(185,4,5);fill-rule:nonzero;"/>
            <path d="M149.98,347.09C155.34,346.96 161,345.94 166.15,347.8C165.76,348.18 164.98,348.94 164.6,349.31C160.71,349.75 156.77,349.37 152.86,349.5C152.67,351.58 152.49,353.66 152.27,355.75C155.99,354.34 160.59,353.52 164.02,356.04C167.13,358.57 167.02,363.03 166.43,366.62C164.95,375.24 149.03,374.68 148.93,365.57C152.23,364.87 152.4,369.34 155.18,369.96C157.98,370.96 161.86,370.21 163.06,367.19C164.57,363.44 163.89,357.36 158.95,356.79C154.98,355.62 152.77,359.86 149.2,360.47C149.19,355.99 149.58,351.53 149.98,347.09Z" style="fill:rgb(7,11,46);fill-rule:nonzero;"/>
            <path d="M176.55,348.52C179.96,346.06 184.59,346.43 188.37,347.75C190.81,348.74 192.14,351.39 191.76,353.97C191.99,357.85 188.15,359.91 185.16,361.36C181.67,363.15 176.53,364.78 177,369.65C181.96,369.82 186.92,369.63 191.88,369.8C191.83,370.42 191.74,371.66 191.7,372.28C185.85,372.77 179.95,372.41 174.08,372.41C174.4,369.56 173.41,365.99 175.81,363.82C179.11,360.48 184.03,359.62 187.55,356.61C189.1,355.46 188.82,353.28 188.43,351.64C186.64,348.71 182.61,349.12 179.74,349.81C176.1,350.59 178.41,357.03 174.07,356.25C174.18,353.54 174.15,350.32 176.55,348.52Z" style="fill:rgb(7,11,46);fill-rule:nonzero;"/>
            <path d="M211.71,349.7C216,344.25 227.37,345.67 228.13,353.34C225.47,353.6 224.33,350.87 222.37,349.64C220.27,348.94 217.85,348.88 215.8,349.8C213.87,351.01 212.99,353.53 214.5,355.44C218.23,357.95 223.2,357.47 226.93,360.03C228.99,361.58 229.77,364.41 229.21,366.88C226.83,374.89 213.58,374.76 210.27,367.54C210.01,367.09 209.5,366.2 209.24,365.75C209.9,365.58 211.22,365.25 211.88,365.08C213.76,368.86 217.81,370.73 221.94,369.78C225.28,369.88 227.11,365.34 224.98,362.99C221.48,360.55 216.81,360.97 213.25,358.67C210.38,356.77 209.77,352.47 211.71,349.7Z" style="fill:rgb(7,11,46);fill-rule:nonzero;"/>
            <path d="M237.82,347.91C243.35,344.09 252.03,347.83 252.18,354.8C251.48,354.8 250.08,354.79 249.38,354.79C248.3,352.1 246.41,348.82 243,349.25C239.13,348.85 236.93,352.89 236.44,356.17C236.03,359.8 235.84,363.84 237.84,367.07C239.22,369.29 242.21,370.94 244.77,369.84C247.42,369.22 248.48,366.46 249.56,364.28C250.19,364.26 251.46,364.23 252.09,364.21C251.8,366.95 250.72,369.75 248.34,371.34C243.98,374.09 237.22,372.96 234.74,368.17C231.24,361.91 231.46,352.27 237.82,347.91Z" style="fill:rgb(7,11,46);fill-rule:nonzero;"/>
            <path d="M243.94,386.77C249.8,386.84 255.34,384.47 260.14,381.28C263.47,389.47 271,395.05 279.25,397.67C297.65,403.81 317.41,401.84 336.41,400.65C330.51,419.64 322.41,438.8 307.71,452.71C297.44,462.75 283.45,468.95 269.05,469.27C262.2,469.47 255.4,468.22 248.81,466.45C242.86,476.93 234.09,486.12 222.9,490.95C215.94,493.36 207.52,490.86 203.11,484.91C199.35,479.94 196.77,474.17 194.93,468.24C187.17,441.67 190.49,413.3 196.78,386.79C212.5,386.77 228.22,386.82 243.94,386.77Z" style="fill:rgb(7,11,46);fill-rule:nonzero;"/>
            <path d="M137.73,382C142.41,383.72 146.83,386.57 151.97,386.66C160.96,386.93 169.95,386.57 178.94,386.84C178.39,392.89 176.77,398.76 175.95,404.77C172.72,426.58 172.09,449.25 178.07,470.67C180.45,479.71 184.61,488.2 189.96,495.85C172.65,494.09 157.15,482.65 149.61,467.07C143.71,467.54 137.96,469.3 132.01,469.34C116.37,469.75 100.86,463.2 89.91,452.08C75.64,438.26 67.59,419.45 62,400.71C70.32,401.44 78.67,401.64 87,402.14C99.89,401.76 113.35,401.16 125.04,395.1C130.64,392.39 135.25,387.73 137.73,382Z" style="fill:rgb(185,4,5);fill-rule:nonzero;"/>
        </g>
        <g transform="matrix(1.12868,0,0,1.12868,1143.4,812.281)">
            <g id="path30" transform="matrix(4.45363,0,0,4.45363,-800.619,-455.043)">
                <path d="M101.747,295.277C101.747,295.277 103.304,295.455 104.165,295.106C104.862,294.936 106.073,294.066 106.941,293.548C107.631,293.197 108.327,292.326 109.363,291.984C109.363,291.984 110.747,291.641 112.139,291.812C108.498,288.689 105.033,285.561 101.915,282.092L101.915,282.267C100.701,281.913 99.143,282.267 99.143,282.267C98.104,282.437 97.235,283.134 96.545,283.65C95.848,284.003 94.462,284.693 93.769,284.871C92.904,285.043 91.168,284.693 91.168,284.693C94.462,288.336 97.932,291.812 101.566,295.277L101.747,295.277Z" style="fill:rgb(0,0,6);"/>
            </g>
            <g id="path32" transform="matrix(4.45363,0,0,4.45363,-800.619,-455.043)">
                <path d="M116.633,307.2C116.633,307.2 118.197,307.028 119.062,306.683C119.754,306.336 120.797,305.469 121.488,304.78C122.184,304.259 122.699,303.393 123.743,302.871C123.743,302.871 125.129,302.353 126.511,302.353C122.528,299.754 118.715,297.157 115.074,294.212L115.074,294.391C113.863,294.212 112.479,294.563 112.479,294.563C111.265,294.91 110.575,295.776 110.05,296.292C109.188,296.812 107.977,297.68 107.28,297.851C106.412,298.198 104.855,298.026 104.855,298.026C108.492,301.314 112.479,304.259 116.461,307.201L116.633,307.201L116.633,307.2Z" style="fill:rgb(0,0,6);"/>
            </g>
            <g id="path34" transform="matrix(4.45363,0,0,4.45363,-800.619,-455.043)">
                <path d="M132.916,317.079C132.916,317.079 134.474,316.725 135.344,316.383C135.862,315.864 136.901,314.824 137.419,314.129C138.115,313.439 138.46,312.57 139.503,311.88C139.503,311.88 140.714,311.184 142.1,311.013C137.77,309.11 133.606,306.856 129.623,304.436L129.797,304.436C128.411,304.607 127.025,305.126 127.025,305.126C125.989,305.647 125.466,306.51 124.949,307.206C124.252,307.726 123.213,308.765 122.523,309.109C121.654,309.454 120.096,309.625 120.096,309.625C124.081,312.227 128.411,314.824 132.746,317.079L132.916,317.079Z" style="fill:rgb(0,0,6);"/>
            </g>
            <g id="path36" transform="matrix(4.45363,0,0,4.45363,-800.619,-455.043)">
                <path d="M150.406,324.693C150.406,324.693 151.969,324.35 152.659,323.656C153.184,323.135 154.046,322.097 154.571,321.234C154.913,320.538 155.261,319.499 156.3,318.809C156.3,318.809 157.341,317.939 158.727,317.594C154.218,316.209 149.715,314.477 145.559,312.57L145.559,312.749C144.349,312.92 143.134,313.609 143.134,313.609C142.095,314.305 141.747,315.342 141.226,316.036C140.537,316.725 139.668,317.767 138.979,318.291C138.282,318.81 136.725,318.979 136.725,318.979C141.054,321.234 145.559,323.135 150.235,324.869L150.406,324.693Z" style="fill:rgb(0,0,6);"/>
            </g>
            <g id="path38" transform="matrix(4.45363,0,0,4.45363,-800.619,-455.043)">
                <path d="M261.951,319.849C261.951,319.849 262.639,318.464 262.813,317.595C262.813,316.901 262.638,315.343 262.466,314.478C262.294,313.61 261.776,312.749 261.776,311.537C261.776,311.537 262.123,310.151 262.638,308.936C258.481,311.184 254.326,313.095 249.989,314.825C249.302,315.865 248.777,317.251 248.777,317.251C248.43,318.639 248.607,319.153 248.607,320.197C248.777,321.057 248.43,322.623 248.26,323.313C248.087,324.179 247.389,325.91 247.389,325.91C251.901,324.351 257.443,322.098 261.951,320.019L261.951,319.849Z" style="fill:rgb(0,0,6);"/>
            </g>
            <g id="path40" transform="matrix(4.45363,0,0,4.45363,-800.619,-455.043)">
                <path d="M278.58,310.842C278.58,310.842 279.267,309.282 279.267,308.242C279.095,307.553 278.75,306.165 278.397,305.297C278.053,304.607 277.537,303.74 277.537,302.525C277.537,302.525 277.537,300.968 278.054,299.755C274.072,302.525 270.086,304.951 266.102,307.206L266.274,307.206C265.578,308.42 265.408,309.807 265.408,309.807C265.408,311.013 265.926,311.88 266.102,312.749C266.274,313.609 266.618,314.996 266.618,315.864C266.447,316.725 265.75,318.113 265.75,318.113C270.085,316.036 274.413,313.609 278.58,310.842Z" style="fill:rgb(0,0,6);"/>
            </g>
            <g id="path42" transform="matrix(4.45363,0,0,4.45363,-800.619,-455.043)">
                <path d="M293.991,299.409C293.991,299.409 294.337,297.85 294.337,296.982C294.164,296.292 293.467,294.91 293.123,294.041C292.779,293.352 291.91,292.655 291.736,291.441C291.736,291.441 291.736,290.056 291.91,288.67C288.442,291.792 284.805,294.909 281.165,297.679L281.165,297.507C280.816,298.893 280.816,300.278 280.816,300.278C280.816,301.486 281.513,302.353 281.858,303.049C282.203,303.911 282.729,305.296 282.729,305.993C282.729,306.854 282.203,308.414 282.203,308.414C286.365,305.811 290.179,302.698 293.991,299.582L293.991,299.409Z" style="fill:rgb(0,0,6);"/>
            </g>
            <g id="path44" transform="matrix(4.45363,0,0,4.45363,-800.619,-455.043)">
                <path d="M307.849,286.243C307.849,286.243 308.022,284.686 307.668,283.825C307.496,283.13 306.634,281.914 306.108,281.052C305.766,280.356 304.898,279.84 304.551,278.625C304.551,278.625 304.207,277.238 304.379,275.857C301.255,279.492 298.14,282.956 294.845,286.069C294.674,287.284 294.845,288.843 294.845,288.843C295.019,290.056 295.714,290.748 296.232,291.441C296.582,292.307 297.272,293.522 297.449,294.212C297.62,295.08 297.272,296.811 297.272,296.811C300.914,293.522 304.551,290.056 307.848,286.422L307.848,286.243L307.849,286.243Z" style="fill:rgb(0,0,6);"/>
            </g>
            <g id="path46" transform="matrix(4.45363,0,0,4.45363,-800.619,-455.043)">
                <path d="M319.795,271.354C319.795,271.354 319.795,269.796 319.277,268.928C319.105,268.239 318.066,267.199 317.541,266.501C316.852,265.812 315.982,265.294 315.463,264.254C315.463,264.254 314.943,262.867 314.943,261.481C312.516,265.465 309.744,269.272 306.798,272.912L306.973,272.912C306.798,274.123 307.145,275.681 307.145,275.681C307.49,276.726 308.358,277.416 308.875,278.111C309.4,278.799 310.261,280.013 310.609,280.703C310.784,281.573 310.784,283.132 310.784,283.132C313.899,279.494 317.02,275.511 319.794,271.528L319.794,271.354L319.795,271.354Z" style="fill:rgb(0,0,6);"/>
            </g>
            <g id="path48" transform="matrix(4.45363,0,0,4.45363,-800.619,-455.043)">
                <path d="M329.665,255.072C329.665,255.072 329.32,253.512 328.968,252.651C328.452,252.13 327.408,251.092 326.724,250.571C326.198,250.053 325.165,249.528 324.469,248.495C324.469,248.495 323.773,247.28 323.601,245.898C321.696,250.224 319.442,254.381 317.016,258.359L317.188,258.187C317.188,259.573 317.708,260.958 317.708,260.958C318.231,261.999 319.271,262.517 319.788,263.038C320.485,263.728 321.347,264.77 321.696,265.464C322.215,266.329 322.215,267.884 322.215,267.884C324.986,263.901 327.409,259.572 329.666,255.24L329.666,255.072L329.665,255.072Z" style="fill:rgb(0,0,6);"/>
            </g>
            <g id="path50" transform="matrix(4.45363,0,0,4.45363,-800.619,-455.043)">
                <path d="M337.808,237.753C337.808,237.753 337.284,236.195 336.765,235.499C336.422,234.813 335.208,233.944 334.511,233.425C333.823,232.902 332.953,232.559 332.259,231.516C332.259,231.516 331.395,230.311 331.222,228.923C329.488,233.425 327.409,237.583 325.33,241.739C325.501,242.951 326.197,244.34 326.197,244.34C326.716,245.372 327.756,245.716 328.275,246.411C328.967,246.93 330.01,247.971 330.355,248.667C330.872,249.357 331.05,251.087 331.05,251.087C333.47,246.758 335.723,242.429 337.807,237.929L337.807,237.753L337.808,237.753Z" style="fill:rgb(0,0,6);"/>
            </g>
            <g id="path52" transform="matrix(4.45363,0,0,4.45363,-800.619,-455.043)">
                <path d="M342.653,219.396C342.653,219.396 341.964,217.837 341.439,217.142C340.748,216.797 339.537,216.102 338.669,215.583C337.979,215.239 336.94,215.068 336.067,214.372C336.067,214.372 335.027,213.157 334.509,211.945C333.642,216.626 332.602,221.297 331.385,225.629C331.734,226.843 332.772,228.056 332.772,228.056C333.469,228.916 334.509,229.094 335.199,229.613C336.067,230.131 337.282,230.828 337.8,231.343C338.322,232.038 338.84,233.596 338.84,233.596C340.4,229.094 341.61,224.243 342.826,219.396L342.653,219.396Z" style="fill:rgb(0,0,6);"/>
            </g>
            <g id="path54" transform="matrix(4.45363,0,0,4.45363,-800.619,-455.043)">
                <path d="M345.595,200.515C345.595,200.515 344.735,199.129 344.036,198.614C343.35,198.093 341.957,197.572 341.095,197.4C340.401,197.057 339.361,197.057 338.318,196.36C338.318,196.36 337.284,195.496 336.588,194.283C336.243,198.957 335.892,203.635 335.201,208.309L335.201,208.138C335.72,209.349 336.76,210.389 336.76,210.389C337.802,211.256 338.842,211.256 339.531,211.6C340.401,211.947 341.611,212.644 342.308,213.159C342.997,213.678 343.693,215.235 343.693,215.235C344.562,210.389 345.254,205.541 345.778,200.515L345.595,200.515Z" style="fill:rgb(0,0,6);"/>
            </g>
            <g id="path56" transform="matrix(4.45363,0,0,4.45363,-800.619,-455.043)">
                <path d="M346.118,181.466C346.118,181.466 345.079,180.079 344.211,179.736C343.522,179.386 342.136,179.042 341.267,178.867C340.401,178.696 339.361,178.867 338.318,178.349C338.318,178.349 337.106,177.484 336.243,176.445C336.588,181.122 336.76,185.796 336.76,190.471L336.76,190.299C337.457,191.51 338.671,192.379 338.671,192.379C339.531,193.071 340.572,193.071 341.441,193.244C342.309,193.415 343.694,193.937 344.385,194.28C345.08,194.801 345.949,196.187 345.949,196.187C346.291,191.339 346.291,186.486 346.118,181.466Z" style="fill:rgb(0,0,6);"/>
            </g>
            <g id="path58" transform="matrix(4.45363,0,0,4.45363,-800.619,-455.043)">
                <path d="M344.036,162.416C344.036,162.416 342.827,161.375 341.964,161.029C341.267,160.686 339.71,160.686 338.841,160.511C337.972,160.511 336.934,160.858 335.898,160.337C335.898,160.337 334.511,159.818 333.644,158.779C334.685,163.453 335.375,168.131 335.898,172.633L335.898,172.462C336.759,173.502 337.972,174.194 337.972,174.194C339.185,174.888 340.227,174.712 340.925,174.712C341.964,174.888 343.351,175.231 344.036,175.578C344.734,175.924 345.948,177.139 345.948,177.139C345.594,172.286 344.908,167.438 344.036,162.588L344.036,162.416Z" style="fill:rgb(0,0,6);"/>
            </g>
            <g id="path60" transform="matrix(4.45363,0,0,4.45363,-800.619,-455.043)">
                <path d="M339.367,143.881C339.367,143.881 338.15,143.016 337.283,142.673C336.416,142.498 335.028,142.673 334.166,142.673C333.299,142.844 332.259,143.192 331.215,142.844C331.215,142.844 329.83,142.498 328.616,141.632C330.355,146.132 331.74,150.638 332.773,155.14L332.773,154.969C333.816,155.833 335.2,156.351 335.2,156.351C336.242,156.872 337.283,156.523 338.15,156.523C339.013,156.523 340.405,156.698 341.094,156.873C341.963,157.217 343.35,158.26 343.35,158.26C342.307,153.41 341.094,148.733 339.537,143.881L339.367,143.881Z" style="fill:rgb(0,0,6);"/>
            </g>
            <g id="path62" transform="matrix(4.45363,0,0,4.45363,-800.619,-455.043)">
                <path d="M332.609,126.045C332.609,126.045 331.05,125.352 330.182,125.18C329.487,125.18 327.928,125.352 327.066,125.697C326.371,125.872 325.33,126.391 324.116,126.217C324.116,126.217 322.732,125.872 321.519,125.352C323.772,129.507 325.673,133.839 327.408,138.166L327.408,137.994C328.452,138.687 329.84,139.03 329.84,139.03C331.051,139.381 332.085,138.859 332.78,138.859C333.823,138.687 335.208,138.512 335.897,138.687C336.764,138.859 338.15,139.895 338.15,139.895C336.593,135.224 334.684,130.719 332.609,126.216L332.609,126.045Z" style="fill:rgb(0,0,6);"/>
            </g>
            <g id="path64" transform="matrix(4.45363,0,0,4.45363,-800.619,-455.043)">
                <path d="M323.426,109.396C323.426,109.396 321.867,108.703 321,108.878C320.139,108.878 318.746,109.222 317.883,109.571C317.188,109.916 316.324,110.436 315.115,110.436C315.115,110.436 313.728,110.436 312.341,109.915C315.115,113.906 317.541,117.897 319.787,121.885C321,122.407 322.385,122.58 322.385,122.58C323.601,122.752 324.469,122.06 325.337,121.885C326.197,121.713 327.586,121.364 328.452,121.364C329.32,121.539 330.708,122.233 330.708,122.233C328.624,117.897 326.197,113.558 323.426,109.396Z" style="fill:rgb(0,0,6);"/>
            </g>
            <g id="path66" transform="matrix(4.45363,0,0,4.45363,-800.619,-455.043)">
                <path d="M312.17,94.003C312.17,94.003 310.441,93.659 309.571,93.83C308.882,93.83 307.49,94.523 306.799,94.869C305.933,95.388 305.242,96.081 304.029,96.253C304.029,96.253 302.643,96.426 301.256,96.081C304.546,99.545 307.49,103.181 310.27,106.818L310.096,106.818C311.475,107.163 312.866,107.163 312.866,107.163C314.083,107.163 314.944,106.469 315.639,106.125C316.5,105.776 317.883,105.433 318.58,105.26C319.625,105.26 321.182,105.777 321.182,105.777C318.408,101.796 315.457,97.812 312.17,94.003Z" style="fill:rgb(0,0,6);"/>
            </g>
            <g id="path68" transform="matrix(4.45363,0,0,4.45363,-800.619,-455.043)">
                <path d="M298.838,80.171C298.838,80.171 297.273,79.997 296.411,80.342C295.715,80.515 294.503,81.381 293.636,81.898C292.946,82.246 292.428,83.111 291.215,83.455C291.215,83.455 289.829,83.8 288.436,83.627C292.078,86.74 295.543,89.853 298.66,93.312L298.66,93.139C300.047,93.484 301.439,93.139 301.439,93.139C302.644,92.967 303.34,92.273 304.038,91.756C304.899,91.409 306.109,90.715 306.807,90.544C307.844,90.371 309.407,90.716 309.407,90.716C306.11,87.087 302.645,83.629 299.013,80.173L298.838,80.173L298.838,80.171Z" style="fill:rgb(0,0,6);"/>
            </g>
            <g id="path70" transform="matrix(4.45363,0,0,4.45363,-800.619,-455.043)">
                <path d="M284.115,68.198C284.115,68.198 282.382,68.371 281.513,68.719C280.816,69.064 279.784,69.932 279.087,70.62C278.396,71.142 277.876,72.007 276.832,72.527C276.832,72.527 275.45,73.048 274.062,73.048C278.046,75.642 281.857,78.243 285.498,81.185L285.498,81.014C286.884,81.185 288.269,80.84 288.269,80.84C289.31,80.492 290,79.627 290.696,79.107C291.391,78.586 292.597,77.721 293.293,77.549C294.163,77.204 295.72,77.377 295.72,77.377C292.083,74.085 288.271,71.142 284.115,68.198Z" style="fill:rgb(0,0,6);"/>
            </g>
            <g id="path72" transform="matrix(4.45363,0,0,4.45363,-800.619,-455.043)">
                <path d="M267.659,58.326C267.659,58.326 266.1,58.671 265.406,59.019C264.716,59.539 263.675,60.577 263.157,61.27C262.632,61.963 262.117,62.827 261.074,63.521C261.074,63.521 259.862,64.212 258.476,64.389C262.807,66.292 266.969,68.541 270.955,70.968L270.783,70.968C272.169,70.792 273.553,70.276 273.553,70.276C274.594,69.755 275.11,68.889 275.628,68.197C276.325,67.677 277.363,66.635 278.053,66.292C278.923,65.947 280.48,65.77 280.48,65.77L280.652,65.77C276.497,63.176 272.17,60.576 267.833,58.325L267.659,58.325L267.659,58.326Z" style="fill:rgb(0,0,6);"/>
            </g>
            <g id="path74" transform="matrix(4.45363,0,0,4.45363,-800.619,-455.043)">
                <path d="M250.342,50.706C250.342,50.706 248.608,51.051 248.088,51.745C247.39,52.265 246.529,53.306 246.012,54.171C245.662,54.864 245.319,55.9 244.448,56.594C244.448,56.594 243.237,57.459 242.021,57.807C246.53,59.194 250.862,60.924 255.017,62.829L255.017,62.657C256.229,62.482 257.615,61.792 257.615,61.792C258.482,61.095 259.001,60.059 259.526,59.366C260.041,58.673 260.911,57.637 261.601,57.115C262.295,56.595 264.026,56.424 264.026,56.424C259.526,54.173 255.017,52.266 250.342,50.536L250.342,50.706Z" style="fill:rgb(0,0,6);"/>
            </g>
            <g id="path76" transform="matrix(4.45363,0,0,4.45363,-800.619,-455.043)">
                <path d="M231.984,45.334C231.984,45.334 230.421,46.028 229.903,46.721C229.383,47.241 228.689,48.453 228.344,49.321C228,50.012 227.819,51.051 226.958,51.915C226.958,51.915 225.918,52.957 224.701,53.477C229.206,54.342 233.886,55.38 238.389,56.765L238.216,56.593C239.429,56.245 240.643,55.38 240.643,55.38C241.511,54.515 241.855,53.477 242.207,52.783C242.722,52.092 243.411,50.877 244.109,50.357C244.628,49.665 246.364,49.148 246.364,49.148C241.683,47.587 236.831,46.377 231.983,45.163L231.983,45.334L231.984,45.334Z" style="fill:rgb(0,0,6);"/>
            </g>
            <g id="path78" transform="matrix(4.45363,0,0,4.45363,-800.619,-455.043)">
                <path d="M213.104,42.392C213.104,42.392 211.718,43.257 211.2,43.95C210.679,44.643 210.333,46.029 209.988,46.893C209.635,47.587 209.635,48.627 208.945,49.665C208.945,49.665 208.079,50.706 206.866,51.4C211.719,51.745 216.22,52.092 220.902,52.784L220.725,52.784C221.942,52.264 222.982,51.223 222.982,51.223C223.842,50.357 223.842,49.321 224.195,48.454C224.539,47.587 225.229,46.377 225.755,45.683C226.27,45.162 227.826,44.298 227.826,44.298C222.982,43.433 218.129,42.74 213.276,42.392L213.104,42.392Z" style="fill:rgb(0,0,6);"/>
            </g>
            <g id="path80" transform="matrix(4.45363,0,0,4.45363,-800.619,-455.043)">
                <path d="M194.05,42.046C194.05,42.046 192.664,43.084 192.318,43.778C191.975,44.469 191.625,45.856 191.45,46.72C191.278,47.585 191.45,48.626 190.934,49.663C190.934,49.663 190.067,50.876 189.023,51.743C193.703,51.395 198.557,51.222 203.059,51.395L203.059,51.222C204.099,50.53 204.966,49.32 204.966,49.32C205.655,48.449 205.655,47.414 205.831,46.549C206.18,45.679 206.524,44.298 207.043,43.605C207.568,42.913 208.779,42.046 208.779,42.046L208.95,42.046C203.926,41.699 199.074,41.699 194.049,41.872L194.049,42.046L194.05,42.046Z" style="fill:rgb(0,0,6);"/>
            </g>
            <g id="path82" transform="matrix(4.45363,0,0,4.45363,-800.619,-455.043)">
                <path d="M174.995,44.122C174.995,44.122 173.962,45.163 173.612,46.028C173.441,46.721 173.266,48.279 173.266,49.147C173.094,50.012 173.441,51.05 172.922,52.091C172.922,52.091 172.404,53.476 171.364,54.341C176.038,53.476 180.719,52.608 185.218,52.091C186.261,51.222 186.956,50.011 186.956,50.011C187.472,48.97 187.3,47.934 187.472,47.065C187.472,46.2 187.819,44.642 188.17,43.948C188.516,43.255 189.726,42.045 189.726,42.045C184.875,42.562 180.022,43.083 175.176,43.948L174.995,44.122Z" style="fill:rgb(0,0,6);"/>
            </g>
            <g id="path84" transform="matrix(4.45363,0,0,4.45363,-800.619,-455.043)">
                <path d="M156.465,48.627C156.465,48.627 155.598,49.84 155.426,50.706C155.254,51.572 155.254,52.957 155.254,53.822C155.426,54.687 155.775,55.729 155.426,56.765C155.426,56.765 155.079,58.326 154.217,59.365C158.719,57.636 163.222,56.422 167.727,55.207L167.556,55.207C168.425,54.17 169.115,52.957 169.115,52.957C169.458,51.744 169.115,50.706 169.115,50.012C169.115,48.971 169.287,47.586 169.458,46.892C169.812,46.028 170.851,44.816 170.851,44.816C165.998,45.682 161.319,46.892 156.637,48.453L156.465,48.627Z" style="fill:rgb(0,0,6);"/>
            </g>
            <g id="path86" transform="matrix(4.45363,0,0,4.45363,-800.619,-455.043)">
                <path d="M138.806,55.555C138.806,55.555 137.936,56.941 137.936,57.805C137.762,58.499 138.108,60.056 138.281,60.922C138.452,61.79 138.978,62.655 138.806,63.868C138.806,63.868 138.624,65.251 137.936,66.464C142.093,64.213 146.427,62.307 150.757,60.577L150.586,60.577C151.273,59.535 151.797,58.15 151.797,58.15C151.968,56.941 151.625,56.076 151.455,55.206C151.273,54.341 151.273,52.783 151.455,52.091C151.455,51.224 152.487,49.84 152.487,49.84C147.814,51.399 143.304,53.304 138.806,55.38L138.806,55.555Z" style="fill:rgb(0,0,6);"/>
            </g>
            <g id="path88" transform="matrix(4.45363,0,0,4.45363,-800.619,-455.043)">
                <path d="M122.006,64.561C122.006,64.561 121.483,66.12 121.483,67.158C121.483,67.849 122.006,69.235 122.178,70.103C122.522,70.793 123.219,71.663 123.219,72.872C123.219,72.872 123.043,74.433 122.694,75.643C126.511,72.872 130.503,70.449 134.665,68.198L134.494,68.198C135.019,66.985 135.19,65.6 135.19,65.6C135.362,64.387 134.847,63.522 134.666,62.655C134.322,61.79 133.979,60.406 134.15,59.538C134.15,58.67 134.847,57.289 134.847,57.289C130.503,59.364 126.166,61.791 122.006,64.561Z" style="fill:rgb(0,0,6);"/>
            </g>
            <g id="path90" transform="matrix(4.45363,0,0,4.45363,-800.619,-455.043)">
                <path d="M106.572,75.992C106.572,75.992 106.222,77.55 106.395,78.417C106.572,79.111 107.089,80.496 107.607,81.361C107.959,82.053 108.646,82.746 108.818,83.956C108.818,83.956 108.999,85.343 108.646,86.727C112.115,83.439 115.756,80.495 119.565,77.721L119.393,77.898C119.913,76.511 119.737,75.127 119.737,75.127C119.737,73.913 119.05,73.049 118.872,72.355C118.526,71.491 118.008,70.104 117.836,69.412C117.836,68.546 118.355,66.986 118.355,66.986C114.37,69.586 110.382,72.528 106.573,75.82L106.573,75.992L106.572,75.992Z" style="fill:rgb(0,0,6);"/>
            </g>
            <g id="path92" transform="matrix(4.45363,0,0,4.45363,-800.619,-455.043)">
                <path d="M92.905,89.153C92.905,89.153 92.733,90.711 92.905,91.578C93.079,92.268 93.948,93.483 94.463,94.349C94.988,95.041 95.684,95.561 96.028,96.772C96.028,96.772 96.374,98.156 96.202,99.543C99.322,95.906 102.625,92.443 105.92,89.327L105.748,89.327C106.091,88.113 105.92,86.556 105.92,86.556C105.566,85.343 104.88,84.65 104.529,83.956C104.008,83.091 103.316,81.881 103.144,81.188C102.972,80.32 103.316,78.59 103.316,78.59C99.675,81.881 96.202,85.342 92.904,88.978L92.904,89.153L92.905,89.153Z" style="fill:rgb(0,0,6);"/>
            </g>
            <g id="path94" transform="matrix(4.45363,0,0,4.45363,-800.619,-455.043)">
                <path d="M80.957,104.047C80.957,104.047 80.957,105.606 81.3,106.47C81.65,107.164 82.514,108.204 83.208,108.897C83.725,109.59 84.594,110.106 85.11,111.148C85.11,111.148 85.637,112.535 85.637,113.919C88.232,109.935 91.004,106.126 93.777,102.49C93.777,101.276 93.43,99.719 93.43,99.719C93.086,98.679 92.219,97.986 91.701,97.295C91.176,96.602 90.317,95.388 90.142,94.696C89.788,93.83 89.963,92.269 89.963,92.269C86.672,95.91 83.724,99.719 80.78,103.876L80.957,104.047Z" style="fill:rgb(0,0,6);"/>
            </g>
            <g id="path96" transform="matrix(4.45363,0,0,4.45363,-800.619,-455.043)">
                <path d="M70.907,120.327C70.907,120.327 71.254,121.888 71.779,122.581C72.122,123.271 73.165,124.311 73.851,124.832C74.551,125.349 75.416,125.869 76.109,126.91C76.109,126.91 76.801,128.121 76.973,129.505C79.056,125.178 81.305,121.02 83.556,117.039L83.556,117.21C83.385,115.825 82.868,114.439 82.868,114.439C82.345,113.402 81.477,112.881 80.961,112.361C80.261,111.667 79.228,110.631 78.878,109.937C78.532,109.07 78.36,107.511 78.36,107.511C75.763,111.494 73.164,115.824 70.906,120.154L70.906,120.327L70.907,120.327Z" style="fill:rgb(0,0,6);"/>
            </g>
            <g id="path98" transform="matrix(4.45363,0,0,4.45363,-800.619,-455.043)">
                <path d="M63.292,137.647C63.292,137.647 63.811,139.381 64.326,140.073C64.849,140.589 66.062,141.456 66.755,141.975C67.448,142.324 68.491,142.668 69.178,143.536C69.178,143.536 70.05,144.747 70.393,146.13C71.957,141.63 73.514,137.125 75.416,132.973L75.244,132.973C75.072,131.758 74.375,130.372 74.375,130.372C73.685,129.506 72.646,128.988 72.128,128.467C71.258,127.946 70.22,127.081 69.877,126.39C69.352,125.696 69.005,123.966 69.005,123.966C66.927,128.468 65.025,132.974 63.292,137.647Z" style="fill:rgb(0,0,6);"/>
            </g>
            <g id="path100" transform="matrix(4.45363,0,0,4.45363,-800.619,-455.043)">
                <path d="M57.921,156.005C57.921,156.005 58.61,157.563 59.308,158.081C59.824,158.602 61.038,159.295 61.909,159.817C62.774,160.16 63.811,160.16 64.678,161.025C64.678,161.025 65.547,162.067 66.062,163.276C66.933,158.773 67.973,154.1 69.359,149.596L69.185,149.771C68.841,148.557 67.973,147.345 67.973,147.345C67.106,146.48 66.237,146.13 65.375,145.787C64.678,145.266 63.467,144.572 62.946,143.88C62.251,143.364 61.734,141.807 61.734,141.807C60.351,146.31 58.964,151.156 57.921,156.005Z" style="fill:rgb(0,0,6);"/>
            </g>
            <g id="path102" transform="matrix(4.45363,0,0,4.45363,-800.619,-455.043)">
                <path d="M54.976,174.882C54.976,174.882 55.843,176.266 56.709,176.787C57.228,177.308 58.617,177.828 59.48,178.002C60.351,178.345 61.387,178.345 62.259,179.038C62.259,179.038 63.474,179.903 64.16,181.118C64.332,176.445 64.857,171.767 65.547,167.089L65.376,167.264C64.857,166.053 63.818,165.013 63.818,165.013C62.947,164.145 61.91,164.145 61.045,163.802C60.352,163.452 58.966,162.759 58.441,162.243C57.752,161.722 57.055,160.164 57.055,160.164C56.014,165.013 55.323,169.859 54.976,174.882Z" style="fill:rgb(0,0,6);"/>
            </g>
            <g id="path104" transform="matrix(4.45363,0,0,4.45363,-800.619,-455.043)">
                <path d="M54.646,193.937C54.646,193.937 55.682,195.323 56.375,195.666C57.065,196.013 58.624,196.359 59.491,196.534C60.181,196.706 61.221,196.534 62.258,197.053C62.258,197.053 63.645,197.921 64.331,198.957C63.987,194.28 63.816,189.606 63.987,184.928C63.126,183.891 62.086,183.026 62.086,183.026C61.05,182.33 60.011,182.33 59.142,182.158C58.277,181.815 56.893,181.466 56.375,180.944C55.508,180.6 54.646,179.214 54.646,179.214C54.302,184.064 54.302,188.912 54.474,193.937L54.646,193.937Z" style="fill:rgb(0,0,6);"/>
            </g>
            <g id="path106" transform="matrix(4.45363,0,0,4.45363,-800.619,-455.043)">
                <path d="M56.709,212.986C56.709,212.986 57.921,214.026 58.792,214.373C59.48,214.715 60.866,214.715 61.734,214.889C62.602,214.889 63.646,214.545 64.677,215.064C64.677,215.064 66.067,215.585 67.105,216.627C66.067,211.946 65.202,207.272 64.677,202.77C63.816,201.903 62.601,201.039 62.601,201.039C61.56,200.519 60.521,200.691 59.65,200.519C58.791,200.519 57.405,200.174 56.708,199.827C55.842,199.48 54.804,198.266 54.804,198.266C55.152,203.115 55.67,207.967 56.534,212.816L56.709,212.986Z" style="fill:rgb(0,0,6);"/>
            </g>
            <g id="path108" transform="matrix(4.45363,0,0,4.45363,-800.619,-455.043)">
                <path d="M61.209,231.516C61.209,231.516 62.595,232.385 63.467,232.559C64.16,232.73 65.547,232.73 66.586,232.73C67.276,232.559 68.319,232.212 69.531,232.559C69.531,232.559 70.915,232.902 71.958,233.771C70.399,229.27 69.014,224.768 67.801,220.258L67.801,220.431C66.934,219.569 65.547,218.873 65.547,218.873C64.332,218.528 63.467,218.873 62.596,218.873C61.562,218.873 60.178,218.701 59.481,218.528C58.611,218.185 57.401,217.142 57.401,217.142C58.441,221.995 59.652,226.667 61.039,231.343L61.209,231.516Z" style="fill:rgb(0,0,6);"/>
            </g>
            <g id="path110" transform="matrix(4.45363,0,0,4.45363,-800.619,-455.043)">
                <path d="M68.138,249.186C68.138,249.186 69.524,250.054 70.394,250.054C71.26,250.225 72.648,249.874 73.515,249.7C74.377,249.528 75.245,249.013 76.461,249.185C76.461,249.185 77.847,249.357 79.058,250.053C76.803,245.898 74.901,241.566 73.338,237.238L73.338,237.409C72.13,236.715 70.743,236.372 70.743,236.372C69.525,236.023 68.664,236.542 67.794,236.542C66.927,236.715 65.369,236.715 64.678,236.715C63.811,236.542 62.424,235.499 62.424,235.499C63.983,240.181 65.891,244.682 67.966,249.186L68.138,249.186Z" style="fill:rgb(0,0,6);"/>
            </g>
            <g id="path112" transform="matrix(4.45363,0,0,4.45363,-800.619,-455.043)">
                <path d="M77.321,265.983C77.321,265.983 78.879,266.501 79.748,266.501C80.438,266.501 81.82,265.983 82.692,265.812C83.557,265.465 84.428,264.772 85.462,264.772C85.462,264.772 87.025,264.943 88.236,265.294C85.462,261.481 83.035,257.497 80.786,253.513C79.576,252.997 78.188,252.823 78.188,252.823C76.973,252.652 76.108,253.171 75.237,253.513C74.375,253.685 72.991,254.037 72.293,253.861C71.428,253.861 69.87,253.171 69.87,253.171C72.121,257.498 74.55,261.829 77.145,265.984L77.321,265.984L77.321,265.983Z" style="fill:rgb(0,0,6);"/>
            </g>
            <g id="path114" transform="matrix(4.45363,0,0,4.45363,-800.619,-455.043)">
                <path d="M88.578,281.398C88.578,281.398 90.136,281.741 91.003,281.571C91.693,281.398 93.086,280.88 93.948,280.355C94.644,280.011 95.335,279.322 96.545,279.143C96.545,279.143 98.104,278.972 99.315,279.322C96.202,275.857 93.257,272.221 90.481,268.408L90.481,268.58C89.273,268.238 87.709,268.238 87.709,268.238C86.494,268.238 85.808,268.927 84.937,269.277C84.077,269.448 82.692,269.965 81.995,270.137C81.127,270.137 79.57,269.621 79.57,269.621C82.339,273.606 85.29,277.586 88.407,281.397L88.578,281.397L88.578,281.398Z" style="fill:rgb(0,0,6);"/>
            </g>
            <g id="path116" transform="matrix(4.45363,0,0,4.45363,-800.619,-455.043)">
                <path d="M134.646,364.877C132.22,366.436 130.833,367.649 130.833,367.649L138.287,376.307L141.403,371.633L134.646,364.877Z" style="fill:rgb(0,0,6);"/>
            </g>
            <g id="path118" transform="matrix(4.45363,0,0,4.45363,-800.619,-455.043)">
                <path d="M138.799,360.378C145.558,354.837 151.101,362.108 151.101,362.108L146.078,366.954L138.799,360.378Z" style="fill:rgb(0,0,6);"/>
            </g>
            <g id="path120" transform="matrix(4.45363,0,0,4.45363,-800.619,-455.043)">
                <path d="M257.443,367.131C259.697,368.862 261.08,370.077 261.08,370.077L253.286,378.562L250.335,373.707L257.443,367.131Z" style="fill:rgb(0,0,6);"/>
            </g>
            <g id="path122" transform="matrix(4.45363,0,0,4.45363,-800.619,-455.043)">
                <path d="M253.466,362.604C246.876,356.693 241.158,363.817 241.158,363.817L245.839,368.862L253.466,362.604Z" style="fill:rgb(0,0,6);"/>
            </g>
            <g id="path124" transform="matrix(4.45363,0,0,4.45363,-800.619,-455.043)">
                <path d="M240.815,348.079C231.979,343.404 227.305,350.155 227.305,350.155C232.675,352.753 237.002,358.813 237.002,358.813L238.389,361.064L238.216,360.894C238.216,360.894 245.144,353.448 250.171,358.124C248.094,355.349 246.186,352.923 245.144,351.713C244.281,350.853 242.723,349.465 240.815,348.079Z" style="fill:rgb(0,0,6);"/>
            </g>
            <g id="path126" transform="matrix(4.45363,0,0,4.45363,-800.619,-455.043)">
                <path d="M244.11,345.996C249.307,339.938 247.055,332.662 246.186,329.196L235.617,334.049C235.789,334.568 237.346,337.512 234.405,340.979C234.405,340.979 244.629,345.307 244.11,345.996Z" style="fill:rgb(0,0,6);"/>
            </g>
            <g id="path128" transform="matrix(4.45363,0,0,4.45363,-800.619,-455.043)">
                <path d="M182.282,351.539C181.24,351.721 180.371,351.721 179.331,351.721C177.601,351.721 175.697,351.367 174.131,350.678C172.748,355.179 162.526,354.14 162.526,354.14C166.163,357.606 171.015,360.204 176.214,361.065L176.214,360.895C176.214,360.895 181.928,359.682 182.103,351.368L182.282,351.539Z" style="fill:rgb(0,0,6);"/>
            </g>
            <g id="path130" transform="matrix(4.45363,0,0,4.45363,-800.619,-455.043)">
                <path d="M223.5,348.597C223.5,348.77 230.599,342.018 235.106,344.094L234.065,343.226C230.079,340.111 225.056,338.381 220.204,338.208C215.874,338.208 208.251,339.42 206.519,342.193C206.519,342.193 213.103,343.575 217.259,347.735C217.604,348.079 219.343,347.735 223.5,348.597Z" style="fill:rgb(0,0,6);"/>
            </g>
            <g id="path132" transform="matrix(4.45363,0,0,4.45363,-800.619,-455.043)">
                <path d="M159.245,354.837C157.169,356.22 155.954,357.427 155.954,357.427L153.874,359.336L154.046,359.336C154.046,359.336 147.463,351.539 142.265,356.047C144.347,353.448 146.248,350.853 147.463,349.809C148.504,348.597 149.889,347.382 151.963,346.349L151.273,346.692C152.145,346.349 152.831,346.175 153.527,345.824C153.528,345.823 154.913,352.406 159.245,354.837Z" style="fill:rgb(0,0,6);"/>
            </g>
            <g id="path134" transform="matrix(4.45363,0,0,4.45363,-800.619,-455.043)">
                <path d="M212.592,348.939C206.526,343.922 200.461,343.053 195.959,341.668L186.95,347.907L197.688,351.539C200.983,352.406 201.672,353.965 205.832,356.564C205.832,356.564 215.365,351.023 212.592,348.939Z" style="fill:rgb(0,0,6);"/>
            </g>
            <g id="path136" transform="matrix(4.45363,0,0,4.45363,-800.619,-455.043)">
                <path d="M231.123,357.948C227.654,361.411 221.768,361.755 221.768,361.755C217.785,361.937 213.973,361.411 209.29,358.639C209.29,358.639 217.089,353.279 216.741,350.678C218.645,351.024 224.189,352.063 225.581,351.024C225.581,351.023 227.482,355.697 231.123,357.948Z" style="fill:rgb(0,0,6);"/>
            </g>
            <g id="path138" transform="matrix(4.45363,0,0,4.45363,-800.619,-455.043)">
                <path d="M185.217,351.023L185.392,350.852L189.891,351.889C198.041,353.964 199.424,355.178 199.424,355.178C199.424,355.178 190.244,363.836 182.094,361.754C182.094,361.754 188.162,357.254 185.392,350.852L185.217,351.023Z" style="fill:rgb(0,0,6);"/>
            </g>
            <g id="path140" transform="matrix(4.45363,0,0,4.45363,-800.619,-455.043)">
                <path d="M243.071,326.777C243.071,326.777 243.412,325.737 243.586,324.869C243.766,324.179 244.11,323.136 243.938,322.268C243.938,321.407 243.243,320.709 243.586,319.676C243.586,319.676 244.454,317.078 245.324,316.035C240.815,317.594 234.405,320.017 230.247,322.267C229.207,322.791 228.345,323.311 228.345,323.311C227.82,324.349 227.649,325.211 227.649,326.08C227.649,326.949 227.477,328.334 227.477,329.195C227.477,331.278 225.574,334.048 225.574,334.048C230.423,333.18 236.661,330.41 240.644,327.985L243.071,326.777Z" style="fill:rgb(0,0,6);"/>
            </g>
            <g id="path142" transform="matrix(4.45363,0,0,4.45363,-800.619,-455.043)">
                <path d="M216.917,323.656C221.073,320.196 224.531,318.979 227.306,319.67C236.838,315.687 238.397,315.343 238.397,315.343C234.755,311.013 230.942,310.323 224.362,310.493C221.417,310.669 212.409,313.956 211.022,315.864L216.917,323.656Z" style="fill:rgb(0,0,6);"/>
            </g>
            <g id="path144" transform="matrix(4.45363,0,0,4.45363,-800.619,-455.043)">
                <path d="M216.924,323.656C216.924,323.656 209.463,317.767 211.718,315.167L216.924,323.656Z" style="fill:rgb(0,0,6);"/>
            </g>
            <g id="path146" transform="matrix(4.45363,0,0,4.45363,-800.619,-455.043)">
                <path d="M167.904,350.155C168.943,349.808 169.983,348.939 170.331,348.596L170.502,348.596C166.861,345.823 164.612,341.322 164.612,336.475C158.024,335.607 156.637,328.163 156.637,328.163C155.598,330.76 155.079,333.351 155.079,336.297C155.079,341.321 156.464,346.17 159.063,350.154L159.238,350.154C159.239,350.155 164.263,351.194 167.904,350.155Z" style="fill:rgb(0,0,6);"/>
            </g>
            <g id="path148" transform="matrix(4.45363,0,0,4.45363,-800.619,-455.043)">
                <path d="M158.542,324.179C158.542,324.179 160.106,331.971 165.301,332.313C166.345,329.027 170.673,325.213 173.446,323.313L174.485,322.098C173.618,315.694 176.565,312.051 176.565,312.051L173.618,312.749C167.379,314.478 161.837,318.81 158.542,324.179Z" style="fill:rgb(0,0,6);"/>
            </g>
            <g id="path150" transform="matrix(4.45363,0,0,4.45363,-800.619,-455.043)">
                <path d="M182.448,312.92C183.31,311.707 184.874,312.227 185.915,312.051C191.631,311.365 199.599,315.167 201.159,318.81L198.558,320.71C196.484,322.616 193.361,322.965 193.361,322.965L191.976,322.442C190.246,321.754 187.473,321.408 185.393,321.408C183.488,321.408 181.233,320.887 179.504,321.579C177.25,319.326 182.448,312.92 182.448,312.92Z" style="fill:rgb(0,0,6);"/>
            </g>
            <g id="path152" transform="matrix(4.45363,0,0,4.45363,-800.619,-455.043)">
                <path d="M207.904,333.878C207.037,334.222 212.587,336.126 221.243,334.912L221.243,334.739C221.243,334.739 222.459,333.528 222.809,332.839C222.981,332.143 223.67,330.411 223.67,329.55C223.841,328.68 224.023,328.164 224.023,326.949C224.023,326.949 224.023,325.909 224.538,324.869C223.5,325.39 218.299,327.121 218.299,327.121C216.917,327.468 215.874,327.639 215.874,327.639C215.183,328.164 214.487,328.854 213.973,329.369C213.448,329.723 212.414,330.584 211.374,331.623C210.85,331.971 208.251,333.528 207.904,333.878Z" style="fill:rgb(0,0,6);"/>
            </g>
            <g id="path154" transform="matrix(4.45363,0,0,4.45363,-800.619,-455.043)">
                <path d="M188.169,334.912C188.169,334.912 187.471,334.912 188.34,331.107C188.515,330.064 188.858,329.369 189.207,328.506C189.553,327.809 189.897,326.777 190.765,325.736C190.765,325.736 189.553,326.427 190.765,325.736L189.03,325.908C184.183,325.389 181.757,325.04 177.249,324.178C176.037,324.178 177.249,324.178 177.249,324.178C175.865,324.523 173.789,325.908 173.265,326.777C172.921,327.467 172.223,327.809 171.706,328.335C171.192,328.854 169.977,330.411 169.977,330.411C174.65,332.491 183.487,335.092 188.169,334.912Z" style="fill:rgb(0,0,6);"/>
            </g>
            <g id="path156" transform="matrix(4.45363,0,0,4.45363,-800.619,-455.043)">
                <path d="M213.979,325.563C213.979,325.563 207.74,320.368 208.781,316.554C201.845,322.792 199.076,325.908 193.361,325.908C191.798,326.08 193.009,325.908 193.009,325.908C192.319,326.776 191.975,327.984 191.625,328.852C191.45,329.721 191.106,330.582 191.106,331.451C190.934,333.87 191.106,334.566 191.106,334.566C197.517,334.911 196.992,335.085 202.886,333.527C202.886,333.527 206.872,332.141 210.684,328.328C211.38,327.81 213.281,326.252 213.979,325.563Z" style="fill:rgb(0,0,6);"/>
            </g>
            <g id="path158" transform="matrix(4.45363,0,0,4.45363,-800.619,-455.043)">
                <path d="M190.595,340.281C183.488,337.69 173.79,336.822 168.59,338.896L169.805,341.322L173.44,346.171L177.601,345.823C177.601,345.823 180.719,345.823 183.144,347.039C183.145,347.039 189.725,340.11 190.595,340.281Z" style="fill:rgb(0,0,6);"/>
            </g>
            <g id="polygon160" transform="matrix(4.45363,0,0,4.45363,-800.619,-455.043)">
                <path d="M255.366,366.092L254.498,365.05L247.564,371.109L248.431,372.149L255.366,366.092Z" style="fill:rgb(0,0,6);"/>
            </g>
            <g id="polygon162" transform="matrix(4.45363,0,0,4.45363,-800.619,-455.043)">
                <path d="M142.961,369.897L143.829,368.862L137.247,362.623L136.38,363.666L142.961,369.897Z" style="fill:rgb(0,0,6);"/>
            </g>
        </g>
    </g>
</svg>
